<svg width="30" height="23" viewBox="0 0 30 23" fill="none" xmlns="http://www.w3.org/2000/svg">
<g id="ci:tag">
<path id="Vector" d="M16.0579 20.6711C15.398 20.673 14.763 20.4735 14.2973 20.1197L4.5393 12.7472C4.28489 12.5556 4.08855 12.3245 3.96387 12.0699C3.83918 11.8154 3.78912 11.5434 3.81713 11.2727L4.43969 5.09437C4.4827 4.64457 4.73917 4.22163 5.16194 3.90335C5.5847 3.58507 6.14532 3.39285 6.74067 3.36206L14.9161 2.89158C14.9809 2.88123 15.0444 2.88123 15.1091 2.88123C15.7691 2.88123 16.4003 3.07883 16.8648 3.43263L26.624 10.8041C26.8554 10.9789 27.0389 11.1864 27.1641 11.4148C27.2893 11.6432 27.3538 11.8879 27.3538 12.1351C27.3538 12.3823 27.2893 12.6271 27.1641 12.8555C27.0389 13.0839 26.8554 13.2914 26.624 13.4661L17.8185 20.1197C17.5879 20.295 17.3135 20.434 17.0113 20.5286C16.7091 20.6233 16.385 20.6717 16.0579 20.6711ZM10.7749 6.26117C10.3654 6.26126 9.9622 6.33766 9.6011 6.48362C9.23999 6.62958 8.93209 6.84059 8.70467 7.09795C8.47724 7.35531 8.33731 7.65108 8.29727 7.95908C8.25723 8.26707 8.31831 8.57777 8.4751 8.86366C8.6319 9.14955 8.87957 9.40181 9.19618 9.59809C9.51278 9.79437 9.88856 9.92861 10.2902 9.98893C10.6919 10.0492 11.107 10.0338 11.4989 9.9439C11.8907 9.85401 12.2472 9.69248 12.5367 9.47362L12.5454 9.46797L12.5541 9.46139L12.5442 9.46797C12.8903 9.20409 13.1253 8.86869 13.2196 8.50403C13.3139 8.13937 13.2633 7.76178 13.0741 7.41884C12.8849 7.0759 12.5655 6.78297 12.1564 6.57695C11.7472 6.37093 11.2665 6.26106 10.7749 6.26117Z" fill="#9F9F9F"/>
</g>
</svg>
