<svg width="25" height="20" viewBox="0 0 25 20" fill="none" xmlns="http://www.w3.org/2000/svg">
<g id="dashicons:admin-users">
<path id="Vector" d="M12.4512 9.06418C9.62478 9.06418 9.05202 5.82726 9.05202 5.82726C8.71584 4.14293 9.73684 2.24219 12.4139 2.24219C15.1033 2.24219 16.1243 4.14293 15.7881 5.82726C15.7881 5.82726 15.2776 9.06418 12.4512 9.06418ZM12.4512 11.4825L15.8379 9.7699C18.8138 9.7699 21.4659 11.9623 21.4659 14.0325V16.3755C21.4659 16.3755 16.9212 17.4388 12.4512 17.4388C7.90651 17.4388 3.43652 16.3755 3.43652 16.3755V14.0325C3.43652 11.9153 5.85206 9.81695 9.00222 9.81695L12.4512 11.4825Z" fill="#9F9F9F"/>
</g>
</svg>
